Coordinates
version=1
nRows=43
nColumns=12
inDegrees=yes

Units are S.I. units (second, meters, Newtons, ...)
Angles are in degrees

endheader
time	SC_y	SC_z	SC_x	AC_y	AC_z	AC_x	GH_y	GH_z	GH_yy	EL_x	PS_y
       0.0              -30.99           6.75          27.97          36.71           9.42         -3.302         -170.6          76.32         -28.26          41.85          106.8
   0.01407              -30.98           6.75          27.97          36.71           9.42         -3.301         -170.6          76.31         -28.27          41.86          106.8
   0.02814              -30.98          6.749          27.96          36.71           9.42         -3.301         -170.5          76.29         -28.28          41.87          106.8
    0.0422              -30.98          6.749          27.96          36.71          9.419           -3.3         -170.5          76.28         -28.29          41.89          106.8
   0.05627              -30.98          6.748          27.96           36.7          9.419         -3.299         -170.5          76.26          -28.3           41.9          106.8
   0.07034              -30.97          6.748          27.95           36.7          9.418         -3.298         -170.4          76.25         -28.32          41.91          106.9
   0.08441              -30.97          6.747          27.95           36.7          9.418         -3.297         -170.4          76.23         -28.33          41.92          106.9
   0.09848              -30.96          6.747          27.94           36.7          9.417         -3.296         -170.3          76.21         -28.35          41.94          106.9
    0.1125              -30.96          6.746          27.94           36.7          9.417         -3.295         -170.3          76.19         -28.36          41.95          106.9
    0.1266              -30.95          6.746          27.93           36.7          9.416         -3.294         -170.3          76.17         -28.38          41.97          106.9
    0.1407              -30.95          6.745          27.93           36.7          9.415         -3.293         -170.2          76.14          -28.4          41.99          106.9
    0.1548              -30.94          6.744          27.92           36.7          9.415         -3.291         -170.1          76.12         -28.42          42.01          106.9
    0.1688              -30.94          6.743          27.91          36.69          9.414          -3.29         -170.1          76.09         -28.44          42.03          106.9
    0.1829              -30.93          6.743          27.91          36.69          9.413         -3.288         -170.0          76.06         -28.47          42.05          106.9
     0.197              -30.92          6.742           27.9          36.69          9.412         -3.286         -169.9          76.03         -28.49          42.08          106.9
     0.211              -30.92          6.741          27.89          36.69          9.411         -3.285         -169.9          75.99         -28.52           42.1          106.9
    0.2251              -30.91           6.74          27.88          36.69           9.41         -3.283         -169.8          75.96         -28.55          42.13          106.9
    0.2392               -30.9          6.739          27.87          36.68          9.409          -3.28         -169.7          75.91         -28.59          42.17          106.9
    0.2532              -30.89          6.737          27.86          36.68          9.408         -3.278         -169.6          75.87         -28.62           42.2          106.9
    0.2673              -30.88          6.736          27.85          36.68          9.406         -3.275         -169.5          75.82         -28.66          42.24          106.9
    0.2814              -30.87          6.734          27.84          36.67          9.405         -3.273         -169.3          75.77          -28.7          42.28          106.9
    0.2954              -30.85          6.733          27.82          36.67          9.403         -3.269         -169.2          75.71         -28.75          42.33          107.0
    0.3095              -30.84          6.731          27.81          36.67          9.401         -3.266         -169.0          75.64         -28.81          42.38          107.0
    0.3236              -30.82          6.729          27.79          36.66          9.399         -3.262         -168.9          75.57         -28.86          42.43          107.0
    0.3376               -30.8          6.727          27.77          36.66          9.397         -3.258         -168.7          75.49         -28.93          42.49          107.0
    0.3517              -30.78          6.724          27.75          36.65          9.394         -3.253         -168.5           75.4          -29.0          42.56          107.0
    0.3658              -30.76          6.721          27.72          36.65          9.391         -3.248         -168.3           75.3         -29.08          42.64          107.0
    0.3798              -30.74          6.718          27.69          36.64          9.388         -3.242         -168.0          75.18         -29.18          42.73          107.1
    0.3939              -30.71          6.715          27.66          36.63          9.384         -3.235         -167.7          75.05         -29.28          42.83          107.1
     0.408              -30.68          6.711          27.63          36.62           9.38         -3.227         -167.4          74.91          -29.4          42.94          107.1
     0.422              -30.64          6.706          27.59          36.61          9.376         -3.218         -167.0          74.74         -29.53          43.07          107.1
    0.4361               -30.6          6.701          27.54           36.6           9.37         -3.208         -166.5          74.55         -29.69          43.22          107.2
    0.4502              -30.55          6.694          27.49          36.59          9.364         -3.196         -166.0          74.33         -29.86          43.39          107.2
    0.4643              -30.49          6.687          27.42          36.57          9.357         -3.183         -165.4          74.07         -30.07          43.58          107.3
    0.4783              -30.42          6.679          27.35          36.56          9.348         -3.167         -164.8          73.78         -30.31          43.81          107.3
    0.4924              -30.35          6.669          27.26          36.53          9.338         -3.148         -163.9          73.42          -30.6          44.09          107.4
    0.5065              -30.25          6.657          27.16          36.51          9.326         -3.126         -163.0           73.0         -30.94          44.41          107.5
    0.5205              -30.14          6.643          27.04          36.48          9.312         -3.099         -161.8           72.5         -31.35           44.8          107.6
    0.5346              -30.01          6.626          26.89          36.44          9.295         -3.067         -160.4          71.89         -31.84          45.27          107.7
    0.5487              -29.84          6.605          26.71           36.4          9.274         -3.027         -158.7          71.15         -32.44          45.84          107.9
    0.5627              -29.64           6.58          26.48          36.34          9.248         -2.979         -156.6          70.23         -33.18          46.55          108.0
    0.5768              -29.39          6.548           26.2          36.27          9.216         -2.918         -154.0          69.08         -34.11          47.43          108.3
    0.5909              -29.07          6.508          25.85          36.19          9.175         -2.841         -150.7          67.64         -35.27          48.54          108.5
